<svg class="md:scale-100" xmlns="http://www.w3.org/2000/svg" width="151" height="24" viewBox="0 0 151 24" fill="none">
<path d="M13.8418 13.5358L21.6581 0H27.6857L13.8418 23.9767L0 0H6.02762L13.8418 13.5358Z" fill="currentColor"></path>
<path d="M42.5416 2.38821e-05H37.1493V24H42.5416V2.38821e-05Z" fill="currentColor"></path>
<path d="M139.836 3.91273H145.227V9.30407H150.619V14.6954H145.227V20.0868H139.836V14.6954H134.444V9.30407H139.836V3.91273Z" fill="currentColor"></path>
<path d="M71.411 5.07824H64.7328V24H59.3427V5.07824H52.6644V2.38821e-05H71.411V5.07824Z" fill="currentColor"></path>
<path fill-rule="evenodd" clip-rule="evenodd" d="M83.4837 19.7913H93.2236L94.7186 24H100.631L91.5872 2.38821e-05H85.2223L76.2135 24H81.9887L83.4837 19.7913ZM88.3536 5.948L91.4849 14.8171H85.2223L88.3536 5.948Z" fill="currentColor"></path>
<path d="M125.575 18.9215V24H110.166V2.38821e-05H115.556V18.9215H125.575Z" fill="currentColor"></path>
</svg>